<mxfile host="app.diagrams.net" modified="2024-03-03T16:16:56.543Z" agent="Mozilla/5.0 (Windows NT 10.0; Win64; x64) AppleWebKit/537.36 (KHTML, like Gecko) Chrome/122.0.0.0 Safari/537.36" etag="cHjdK_T55TgSFwtORmu6" version="24.0.1" type="device">
  <diagram name="Page-1" id="xzKH0qwkwGqdkaTjgTn6">
    <mxGraphModel dx="1050" dy="522" grid="1" gridSize="10" guides="1" tooltips="1" connect="1" arrows="1" fold="1" page="1" pageScale="1" pageWidth="1100" pageHeight="850" math="0" shadow="0">
      <root>
        <mxCell id="0" />
        <mxCell id="1" parent="0" />
        <mxCell id="BrPFkWmT9btlEyw2glw--7" value="" style="edgeStyle=orthogonalEdgeStyle;rounded=0;orthogonalLoop=1;jettySize=auto;html=1;" edge="1" parent="1" source="BrPFkWmT9btlEyw2glw--3" target="BrPFkWmT9btlEyw2glw--6">
          <mxGeometry relative="1" as="geometry" />
        </mxCell>
        <mxCell id="BrPFkWmT9btlEyw2glw--3" value="Login Screen" style="rounded=0;whiteSpace=wrap;html=1;" vertex="1" parent="1">
          <mxGeometry x="130" y="170" width="120" height="60" as="geometry" />
        </mxCell>
        <mxCell id="BrPFkWmT9btlEyw2glw--9" value="" style="edgeStyle=orthogonalEdgeStyle;rounded=0;orthogonalLoop=1;jettySize=auto;html=1;" edge="1" parent="1" source="BrPFkWmT9btlEyw2glw--6" target="BrPFkWmT9btlEyw2glw--8">
          <mxGeometry relative="1" as="geometry" />
        </mxCell>
        <mxCell id="BrPFkWmT9btlEyw2glw--10" value="No" style="edgeLabel;html=1;align=center;verticalAlign=middle;resizable=0;points=[];" vertex="1" connectable="0" parent="BrPFkWmT9btlEyw2glw--9">
          <mxGeometry x="-0.03" y="-1" relative="1" as="geometry">
            <mxPoint as="offset" />
          </mxGeometry>
        </mxCell>
        <mxCell id="BrPFkWmT9btlEyw2glw--15" style="edgeStyle=orthogonalEdgeStyle;rounded=0;orthogonalLoop=1;jettySize=auto;html=1;exitX=1;exitY=0.5;exitDx=0;exitDy=0;entryX=0;entryY=0.5;entryDx=0;entryDy=0;" edge="1" parent="1" source="BrPFkWmT9btlEyw2glw--6" target="BrPFkWmT9btlEyw2glw--14">
          <mxGeometry relative="1" as="geometry" />
        </mxCell>
        <mxCell id="BrPFkWmT9btlEyw2glw--6" value="Authorized?" style="rhombus;whiteSpace=wrap;html=1;rounded=0;" vertex="1" parent="1">
          <mxGeometry x="300" y="160" width="80" height="80" as="geometry" />
        </mxCell>
        <mxCell id="BrPFkWmT9btlEyw2glw--16" style="edgeStyle=orthogonalEdgeStyle;rounded=0;orthogonalLoop=1;jettySize=auto;html=1;exitX=1;exitY=0.5;exitDx=0;exitDy=0;entryX=0.5;entryY=0;entryDx=0;entryDy=0;" edge="1" parent="1" source="BrPFkWmT9btlEyw2glw--8" target="BrPFkWmT9btlEyw2glw--14">
          <mxGeometry relative="1" as="geometry" />
        </mxCell>
        <mxCell id="BrPFkWmT9btlEyw2glw--8" value="TFA Code Entry" style="whiteSpace=wrap;html=1;rounded=0;" vertex="1" parent="1">
          <mxGeometry x="440" y="110" width="120" height="60" as="geometry" />
        </mxCell>
        <mxCell id="BrPFkWmT9btlEyw2glw--18" value="" style="edgeStyle=orthogonalEdgeStyle;rounded=0;orthogonalLoop=1;jettySize=auto;html=1;startArrow=classic;startFill=1;" edge="1" parent="1" source="BrPFkWmT9btlEyw2glw--14" target="BrPFkWmT9btlEyw2glw--17">
          <mxGeometry relative="1" as="geometry" />
        </mxCell>
        <mxCell id="BrPFkWmT9btlEyw2glw--20" value="" style="edgeStyle=orthogonalEdgeStyle;rounded=0;orthogonalLoop=1;jettySize=auto;html=1;startArrow=classic;startFill=1;" edge="1" parent="1" source="BrPFkWmT9btlEyw2glw--14" target="BrPFkWmT9btlEyw2glw--19">
          <mxGeometry relative="1" as="geometry" />
        </mxCell>
        <mxCell id="BrPFkWmT9btlEyw2glw--14" value="Parental Control Panel" style="rounded=0;whiteSpace=wrap;html=1;" vertex="1" parent="1">
          <mxGeometry x="580" y="170" width="120" height="60" as="geometry" />
        </mxCell>
        <mxCell id="BrPFkWmT9btlEyw2glw--17" value="Screentime Panel" style="whiteSpace=wrap;html=1;rounded=0;" vertex="1" parent="1">
          <mxGeometry x="770" y="170" width="120" height="60" as="geometry" />
        </mxCell>
        <mxCell id="BrPFkWmT9btlEyw2glw--19" value="Web Blocker Panel" style="whiteSpace=wrap;html=1;rounded=0;" vertex="1" parent="1">
          <mxGeometry x="580" y="270" width="120" height="60" as="geometry" />
        </mxCell>
      </root>
    </mxGraphModel>
  </diagram>
</mxfile>
